<svg xmlns="http://www.w3.org/2000/svg" viewBox="0 0 512 512"><rect x="176" y="176" width="160" height="160" rx="16" fill="#FF8A1F"/><rect x="200.5" y="120" width="15" height="42" rx="4" fill="#FF8A1F"/><rect x="200.5" y="350" width="15" height="42" rx="4" fill="#FF8A1F"/><rect x="120" y="200.5" width="42" height="15" rx="4" fill="#FF8A1F"/><rect x="350" y="200.5" width="42" height="15" rx="4" fill="#FF8A1F"/><rect x="232.5" y="120" width="15" height="42" rx="4" fill="#FF8A1F"/><rect x="232.5" y="350" width="15" height="42" rx="4" fill="#FF8A1F"/><rect x="120" y="232.5" width="42" height="15" rx="4" fill="#FF8A1F"/><rect x="350" y="232.5" width="42" height="15" rx="4" fill="#FF8A1F"/><rect x="264.5" y="120" width="15" height="42" rx="4" fill="#FF8A1F"/><rect x="264.5" y="350" width="15" height="42" rx="4" fill="#FF8A1F"/><rect x="120" y="264.5" width="42" height="15" rx="4" fill="#FF8A1F"/><rect x="350" y="264.5" width="42" height="15" rx="4" fill="#FF8A1F"/><rect x="296.5" y="120" width="15" height="42" rx="4" fill="#FF8A1F"/><rect x="296.5" y="350" width="15" height="42" rx="4" fill="#FF8A1F"/><rect x="120" y="296.5" width="42" height="15" rx="4" fill="#FF8A1F"/><rect x="350" y="296.5" width="42" height="15" rx="4" fill="#FF8A1F"/><path d="M304.0,120 L304.0,106 L364.0,46" fill="none" stroke="#FF8A1F" stroke-width="13" stroke-linecap="round" stroke-linejoin="round"/><circle cx="364.0" cy="46" r="17" fill="#FF8A1F"/><path d="M208.0,392 L208.0,406 L148.0,466" fill="none" stroke="#FF8A1F" stroke-width="13" stroke-linecap="round" stroke-linejoin="round"/><circle cx="148.0" cy="466" r="17" fill="#FF8A1F"/><path d="M392,208.0 L402,208.0 L452,158.0" fill="none" stroke="#FF8A1F" stroke-width="13" stroke-linecap="round" stroke-linejoin="round"/><circle cx="452" cy="158.0" r="17" fill="#FF8A1F"/><path d="M120,304.0 L110,304.0 L60,354.0" fill="none" stroke="#FF8A1F" stroke-width="13" stroke-linecap="round" stroke-linejoin="round"/><circle cx="60" cy="354.0" r="17" fill="#FF8A1F"/><path d="M392,240.0 L436,240.0 L476,200.0" fill="none" stroke="#FF8A1F" stroke-width="13" stroke-linecap="round" stroke-linejoin="round"/><circle cx="476" cy="200.0" r="17" fill="#FF8A1F"/><path d="M120,272.0 L76,272.0 L36,312.0" fill="none" stroke="#FF8A1F" stroke-width="13" stroke-linecap="round" stroke-linejoin="round"/><circle cx="36" cy="312.0" r="17" fill="#FF8A1F"/></svg>